<svg xmlns="http://www.w3.org/2000/svg" width="484" height="515" viewBox="0 0 484 515">
<g>
<path d="M 227.89 486.14 C211.80,475.94 197.26,433.91 190.00,376.63 C187.29,355.30 185.48,317.33 187.07,315.41 C188.55,313.64 200.07,313.47 201.80,315.20 C202.67,316.07 203.00,323.31 203.01,341.45 C203.03,375.19 205.86,407.24 211.00,432.00 C213.55,444.27 214.50,447.71 218.21,458.00 C222.17,469.01 224.03,472.57 228.49,477.75 C231.78,481.57 232.61,482.00 236.62,482.00 C240.56,482.00 241.68,481.44 246.20,477.25 C254.62,469.42 260.19,455.62 268.62,421.75 C269.54,418.04 270.68,415.00 271.15,415.00 C272.30,415.00 272.23,415.92 270.03,428.00 C266.96,444.87 265.40,451.03 261.95,459.97 C252.32,484.93 240.41,494.09 227.89,486.14 ZM 53.50 393.79 C49.55,392.41 44.32,388.46 42.87,385.77 C42.24,384.58 41.76,380.98 41.81,377.76 C42.06,359.91 66.72,330.17 108.50,297.34 C128.68,281.47 165.93,256.00 168.94,256.00 C170.65,256.00 177.00,265.77 177.00,268.39 C177.00,269.73 170.20,275.00 168.49,275.00 C165.33,275.00 117.45,305.37 103.50,316.22 C100.75,318.35 95.12,322.71 91.00,325.91 C79.97,334.44 63.84,350.11 58.19,357.79 C51.72,366.57 49.01,372.08 48.35,377.82 C47.86,382.02 48.10,382.77 50.65,385.17 C54.77,389.03 63.82,391.38 71.39,390.57 C85.29,389.07 105.03,384.95 112.50,381.99 C119.01,379.41 121.03,378.86 122.67,379.22 C126.37,380.01 106.54,388.38 94.50,391.10 C77.23,395.00 60.16,396.12 53.50,393.79 ZM 384.50 382.32 C379.41,381.69 365.66,378.94 362.50,377.94 C360.85,377.41 355.23,375.83 350.00,374.42 C328.80,368.71 300.97,357.37 264.75,339.69 C244.34,329.73 244.02,329.42 248.07,323.50 C249.20,321.85 250.53,319.49 251.03,318.25 C252.34,315.04 255.27,315.42 261.83,319.65 C264.95,321.66 269.08,324.31 271.00,325.54 C278.95,330.60 303.64,343.31 320.28,350.89 C349.58,364.24 365.62,369.66 387.50,373.60 C401.46,376.11 414.27,374.10 417.02,368.97 C419.67,364.01 414.58,350.77 405.50,339.02 C400.66,332.75 386.09,317.66 378.25,310.79 C372.94,306.15 372.12,305.00 374.08,305.00 C377.56,305.00 402.68,328.21 411.90,339.95 C417.05,346.52 422.50,357.14 423.27,362.14 C424.16,367.88 422.50,373.13 418.69,376.64 C413.24,381.65 398.56,384.09 384.50,382.32 ZM 284.01 279.03 C282.36,275.74 281.00,272.41 281.00,271.62 C281.00,270.79 286.36,267.35 293.60,263.55 C327.14,245.90 360.38,222.44 382.86,200.56 C399.77,184.11 407.34,173.45 408.54,164.42 C409.08,160.29 408.84,159.06 407.04,156.77 C403.77,152.62 398.52,151.66 382.87,152.35 C369.66,152.93 355.28,155.80 341.50,160.58 C337.02,162.14 332.61,162.45 333.41,161.15 C333.70,160.68 336.09,159.51 338.72,158.55 C341.35,157.60 344.85,156.21 346.50,155.48 C350.59,153.66 363.79,150.18 372.95,148.50 C397.20,144.06 407.48,145.70 413.81,155.02 C417.38,160.27 416.57,167.53 411.22,178.20 C408.93,182.76 406.03,187.77 404.78,189.33 C379.99,220.16 359.85,237.85 310.50,272.16 C302.11,277.99 290.12,285.00 288.53,285.00 C287.70,285.00 285.68,282.34 284.01,279.03 ZM 78.00 232.28 C72.54,230.21 51.93,210.00 44.58,199.50 C35.39,186.36 32.44,176.66 35.45,169.46 C37.89,163.62 39.70,162.15 47.30,159.84 C68.16,153.50 112.78,164.72 170.50,190.82 C195.21,201.99 211.06,209.99 211.67,211.59 C212.63,214.08 206.65,224.42 204.02,224.83 C202.82,225.01 198.78,223.24 194.70,220.74 C177.20,210.02 160.58,201.16 142.00,192.64 C135.12,189.48 128.75,186.49 127.83,185.99 C122.75,183.22 98.43,174.03 88.50,171.12 C69.37,165.52 51.42,164.23 45.23,168.00 C40.48,170.90 39.37,173.97 40.73,180.46 C42.39,188.34 45.27,193.94 52.16,202.67 C55.57,206.98 58.61,210.74 58.92,211.04 C62.02,213.93 80.35,232.98 79.98,232.92 C79.72,232.88 78.82,232.59 78.00,232.28 ZM 259.50 227.26 C257.86,227.02 256.21,226.34 255.85,225.76 C255.49,225.18 255.19,215.43 255.17,204.10 C255.09,139.05 244.06,79.32 229.17,63.29 C223.70,57.40 218.48,57.68 211.36,64.23 C203.81,71.20 194.93,92.28 191.58,111.21 C190.52,117.19 189.00,116.74 189.00,110.44 C189.00,97.59 199.42,69.19 207.73,59.41 C212.53,53.76 220.85,50.83 226.24,52.89 C234.22,55.95 243.92,69.72 250.39,87.17 C260.47,114.37 268.22,158.82 271.18,206.34 C272.61,229.35 272.69,229.20 259.50,227.26 Z" fill="#22E2FF"/>
</g>
</svg>