<svg xmlns="http://www.w3.org/2000/svg" width="500" height="500" viewBox="0 0 500 500">
<g>
<path d="M 185.31 343.30 C184.11,343.07 181.52,341.10 179.56,338.94 C176.58,335.63 176.00,334.26 176.00,330.43 C176.00,327.92 176.52,324.89 177.16,323.68 C178.59,321.02 232.33,266.17 235.81,263.83 C242.12,259.60 252.28,261.78 255.53,268.05 C257.52,271.91 257.38,278.91 255.24,282.12 C254.28,283.56 241.21,297.36 226.19,312.78 C195.86,343.93 194.35,345.06 185.31,343.30 ZM 326.50 320.04 C323.16,318.65 268.61,263.23 267.15,259.74 C264.88,254.33 266.18,248.14 270.39,244.28 C273.50,241.43 274.67,241.00 279.29,241.00 C283.25,241.00 285.38,241.58 287.62,243.25 C292.24,246.71 342.96,298.10 345.10,301.50 C349.14,307.90 346.57,315.95 339.25,319.86 C336.82,321.17 329.45,321.27 326.50,320.04 ZM 220.89 244.65 C219.03,243.35 204.90,229.63 189.50,214.15 C159.25,183.76 157.72,181.72 160.04,175.00 C161.65,170.36 162.66,169.22 167.14,166.93 C171.74,164.58 176.05,164.47 180.30,166.60 C183.55,168.23 237.58,221.91 240.59,226.50 C242.63,229.61 242.63,235.88 240.59,239.83 C237.03,246.70 227.28,249.09 220.89,244.65 ZM 258.93 224.76 C251.96,221.99 249.33,211.30 254.00,204.74 C255.38,202.81 268.96,188.44 284.18,172.80 C314.64,141.52 316.27,140.28 323.81,142.94 C332.81,146.12 336.50,154.77 332.21,162.63 C330.25,166.21 277.59,220.35 272.76,223.75 C269.31,226.17 263.54,226.60 258.93,224.76 Z" fill="rgba(0,0,0,1)"/>
</g>
</svg>